SplineFontDB: 3.0
FontName: Experiment
FullName: Experiment
FamilyName: Experiment
Weight: Regular
Copyright: Copyright (c) 2015, Pathum Egodawatta
UComments: "2015-9-29: Created with FontForge (http://fontforge.org)"
Version: 001.000
ItalicAngle: 0
UnderlinePosition: -100
UnderlineWidth: 50
Ascent: 750
Descent: 250
InvalidEm: 0
LayerCount: 4
Layer: 0 0 "Back" 1
Layer: 1 0 "Fore" 0
Layer: 2 0 "Back 3" 1
Layer: 3 0 "s1" 1
XUID: [1021 779 -1439063335 14876943]
FSType: 0
OS2Version: 0
OS2_WeightWidthSlopeOnly: 0
OS2_UseTypoMetrics: 1
CreationTime: 1443542790
ModificationTime: 1445855642
OS2TypoAscent: 0
OS2TypoAOffset: 1
OS2TypoDescent: 0
OS2TypoDOffset: 1
OS2TypoLinegap: 90
OS2WinAscent: 0
OS2WinAOffset: 1
OS2WinDescent: 0
OS2WinDOffset: 1
HheadAscent: 0
HheadAOffset: 1
HheadDescent: 0
HheadDOffset: 1
OS2CapHeight: 0
OS2XHeight: 0
OS2Vendor: 'PfEd'
Lookup: 260 1 0 "'abvm' Above Base Mark in Thaana lookup 0" { "'abvm' Above Base Mark in Thaana lookup 0-1"  } ['abvm' ('thaa' <'dflt' > ) ]
MarkAttachClasses: 1
DEI: 91125
Encoding: iso8859-15
Compacted: 1
UnicodeInterp: none
NameList: sinhala
DisplaySize: -96
AntiAlias: 1
FitToEm: 1
WinInfo: 0 12 7
BeginPrivate: 0
EndPrivate
Grid
-1000 65 m 0
 2000 65 l 1024
-1000 -20 m 4
 2000 -20 l 1028
-1000 479 m 0
 2000 479 l 1024
-1000 539.5 m 0
 2000 539.5 l 1024
-1000 730 m 0
 2000 730 l 1024
-1000 118 m 0
 2000 118 l 1024
-1000 456.200012207 m 0
 2000 456.200012207 l 1024
-1000 689.200012207 m 0
 2000 689.200012207 l 1024
EndSplineSet
AnchorClass2: "thn_ubufibi" "'abvm' Above Base Mark in Thaana lookup 0-1" 
BeginChars: 267 21

StartChar: si_Tta
Encoding: 256 3495 0
Width: 615
VWidth: 3
Flags: HMW
LayerCount: 4
Back
Fore
SplineSet
316 345 m 1
 314 345 104 322 104 191 c 5
 106 141 177.001953125 76.7177734375 284 76 c 4
 446.999023438 74.90625 498 214 498 336 c 1
 498 506 439 600 278 607 c 1
 195 603 68 552 65 552 c 1
 43 607 l 0
 43 607 173.000976562 678.4296875 279 678 c 0
 479.000856741 677.189257926 580 538 580 331 c 0
 580 123 486 -20 290 -20 c 0
 131 -20 24 70 24 186 c 0
 24 350 185 391 185 391 c 1
 301 417 l 1
 316 345 l 1
EndSplineSet
Layer: 2
Layer: 3
EndChar

StartChar: si_Pa
Encoding: 257 3508 1
Width: 654
VWidth: -12
Flags: HMW
LayerCount: 4
Back
Fore
SplineSet
322 -19 m 0
 166 -19 35 62 35 208 c 0
 35 354 253 356 253 356 c 1
 289 291 l 1
 286 291 105 283 105 216 c 1
 107 159 167 70 322 70 c 0
 487 70 545 159 547 222 c 1
 550 268 440 291 361 291 c 1
 389 355 l 1
 389 355 619 360 619 210 c 0
 619 40 450 -19 322 -19 c 0
425 319 m 1
 361 291 l 1
 347 420 l 0
 347 502 423 539 475 539 c 0
 544 539 605 494 605 418 c 0
 605 361 551 278 551 278 c 1
 507 300 l 1
 544 412 l 1
 544 412 547 470 479 470 c 4
 446 470 410 458 410 411 c 0
 410 396 425 319 425 319 c 1
231 307 m 1
 248 412 l 0
 242.484375 450.608398438 197 473 149 473 c 4
 131 402 l 1
 76 411 l 1
 76 411 66 433 66 453 c 0
 66 518 121 539 166 539 c 0
 232 539 302 502 302 421 c 0
 289 291 l 1
 231 307 l 1
EndSplineSet
Layer: 2
Layer: 3
EndChar

StartChar: si_Va
Encoding: 258 3520 2
Width: 629
VWidth: 3
Flags: HMW
LayerCount: 4
Back
SplineSet
269 299 m 5
 286 356 l 5
 286 356 258 418 157 418 c 4
 151 383 l 5
 101 384 l 5
 94 394 90 400 90 416 c 4
 90 453.853515625 125.002929688 473.149414062 190 472 c 4
 257.016601562 470.815429688 338 432 336 348 c 4
 326 275 l 5
 269 299 l 5
326 275 m 5
 324 275 94 242 94 151 c 5
 96 91 157.001953125 60.7177734375 274 60 c 4
 437 59 498 214 498 336 c 5
 498 506 439 610 278 617 c 5
 195 613 52 558 49 558 c 5
 33 597 l 4
 68 630 193.000976562 678.4296875 279 678 c 4
 479 677 580 538 580 331 c 4
 580 123 476 -20 280 -20 c 4
 131 -20 24 20 24 136 c 4
 24 230 94 257 115 272 c 5
 269 301 l 5
 326 275 l 5
EndSplineSet
Fore
SplineSet
283 292 m 1
 276 365 l 1
 276 365 254 407 173 407 c 0
 167 355 l 1
 101 354 l 1
 94 364 90 390 90 406 c 0
 90 453.853515625 145.002929688 472.115234375 190 472 c 0
 277.026367188 471.77734375 348 432 356 328 c 0
 353 225 l 1
 283 292 l 1
353 225 m 1
 352.258959618 225 319.255859375 225.70703125 278 225.744140625 c 0
 207.91015625 225.80859375 114 218.282662642 114 161 c 1
 116 109 178.002481811 76.8181644629 295 76 c 0
 438 75 502 184 502 336 c 1
 502 506 439 605 278 612 c 1
 195 608 52 548 49 548 c 1
 33 597 l 0
 68 625 193.000976562 678.4296875 279 678 c 0
 479 677 580 538 580 331 c 0
 580 123 497 -20 291 -20 c 0
 142 -20 34 40 34 156 c 0
 34 280 175 291 175 291 c 1
 283 294 l 1
 353 225 l 1
EndSplineSet
Layer: 2
Layer: 3
EndChar

StartChar: si_Ra
Encoding: 259 3515 4
Width: 576
VWidth: 15
Flags: HMW
LayerCount: 4
Back
Fore
SplineSet
421 738 m 1
 421 632 338 560 248 482 c 0
 174 418 101 358 101 224 c 1
 103 197 121 75 289 75 c 0
 424 75 461 205 463 247 c 1
 463 330 411 411 283 411 c 0
 205 411 100 361 100 361 c 1
 137 426 l 0
 314 475 l 0
 470 474 536 336 536 241 c 0
 536 81 430 -20 285 -20 c 0
 125 -20 28 98 28 233 c 0
 28 437 247 574 327 664 c 5
 365 768 l 1
 406 777 421 758 421 738 c 1
EndSplineSet
Layer: 2
Layer: 3
EndChar

StartChar: si_Ca
Encoding: 260 3488 5
Width: 644
VWidth: 3
Flags: MW
LayerCount: 4
Back
SplineSet
-6.609375 273.10546875 m 5
 181.23828125 310.360351562 242.045898438 301.440429688 356.001953125 310.58984375 c 5
 356.001953125 275.400390625 l 5
 262.526367188 280.37109375 137.69140625 265.34765625 -6.609375 237.915039062 c 5
 -6.609375 273.10546875 l 5
322.340820312 276.9296875 m 5
 334.081054688 350.370117188 l 5
 317.615234375 373.705078125 265.6640625 396.26953125 217.536132812 396.26953125 c 4
 194.5859375 335.834960938 l 5
 144.095703125 341.537109375 l 5
 132.854492188 351.686523438 128.737304688 368.595703125 131.856445312 386.325195312 c 4
 140.3359375 434.51953125 182.732421875 461.294921875 224.420898438 461.294921875 c 4
 278.85546875 461.294921875 373.595703125 419.34375 373.595703125 348.83984375 c 4
 373.595703125 311.147460938 356.001953125 275.400390625 356.001953125 275.400390625 c 5
 322.340820312 276.9296875 l 5
354.928710938 275.706054688 m 5
 352.193359375 275.818359375 154.856445312 234.219726562 154.747070312 134.584960938 c 5
 156.294921875 97.3671875 183.98046875 40.826171875 290.823242188 40.6591796875 c 4
 462.1953125 40.3916015625 507.39453125 193.8515625 507.459960938 314.109375 c 5
 507.494140625 489.168945312 466.701171875 585.74609375 363.958007812 593.333984375 c 5
 242.762695312 585.18359375 78.0048828125 487.697265625 74.328125 488.0703125 c 5
 58.875 515.763671875 l 4
 107.818359375 575.659179688 242.9609375 645.108398438 365.181640625 644.588867188 c 4
 518.892578125 643.935546875 597.12890625 522.189453125 597.12890625 309.213867188 c 4
 597.12890625 114.54296875 491.646484375 -18.8193359375 294.495117188 -18.8193359375 c 4
 170.337890625 -18.8193359375 65.912109375 26.1279296875 65.912109375 128.060546875 c 4
 65.912109375 176.918945312 96.61328125 226.893554688 143.33203125 248.625 c 5
 352.0234375 310.130859375 l 5
 354.928710938 275.706054688 l 5
EndSplineSet
Fore
SplineSet
25 325 m 1
 365 325 l 1
 365 275 l 1
 135 275 l 1
 24 266 l 1
 25 325 l 1
311 289 m 1
 322 320 l 1
 315 366 l 1
 315 366 297 418 196 418 c 0
 190 383 l 1
 140 384 l 1
 133 394 129 400 129 416 c 0
 129 453.853515625 170.995117188 480.561523438 226 480 c 0
 363.014648438 478.599609375 378 358 378 358 c 0
 365 275 l 1
 311 289 l 1
293 287 m 1
 291 287 153 212 153 151 c 1
 155 111 216.001953125 70.7177734375 333 70 c 0
 496 69 537 214 537 336 c 1
 537 506 478 610 317 617 c 1
 234 613 112 569 109 569 c 1
 93 617 l 0
 128 640 232.000976562 678.4296875 318 678 c 0
 518 677 619 538 619 331 c 0
 619 123 535 -20 339 -20 c 0
 190 -20 73 30 73 146 c 0
 73 190 93 217 114 232 c 1
 221 286 l 1
 293 287 l 1
EndSplineSet
Layer: 2
Layer: 3
EndChar

StartChar: uni0061
Encoding: 97 97 6
Width: 510
VWidth: 39
Flags: W
HStem: -12 76<138.185 247.079> 250 73.1865<159.787 327.091> 472 74<135.201 309.165>
VStem: 29 74<93.7852 191.933> 341 86<174 261 313 384>
LayerCount: 4
Back
SplineSet
392.950195312 54.6630859375 m 1
 392.950195312 54.6630859375 305.341013264 -12 208 -12 c 0
 99 -12 29 44 29 134 c 0
 29 241.610351562 90.341796875 332.938476562 220 343.186523438 c 0
 295.712890625 349.170898438 400 333 400 333 c 1
 376 281 l 1
 224 270 l 1
 165 270 103 195 103 127 c 1
 103 106.287109375 138.999997408 65.2693658771 220 64 c 0
 357 102 l 1
 392.950195312 54.6630859375 l 1
58 502 m 1
 109 517 l 1
 118 471 l 1
 106 411 l 1
 76 406 l 1
 59 407 36 471 58 502 c 1
331 174 m 2
 331 384 l 0
 331 384 331 470 230 472 c 1
 169 459 90 439 88 439 c 1
 58 502 l 0
 82 521 159 546 235 546 c 0
 350 546 416 480 417 360 c 0
 417 150 l 1
 417 94 432 76 432 76 c 1
 464 65 l 1
 440 -16 l 1
 440 -16 382.25 5.6982421875 380 10 c 2
 346 75 l 1
 336.049804688 96.3369140625 331 174 331 174 c 2
EndSplineSet
Fore
SplineSet
402.950195312 54.6630859375 m 1
 402.950195312 54.6630859375 305.341013264 -12 208 -12 c 0
 99 -12 29 44 29 134 c 0
 29 241.610351562 90.341796875 312.938476562 220 323.186523438 c 0
 295.713324423 329.170824307 410 313 410 313 c 1
 386 261 l 1
 224 250 l 1
 165 250 103 195 103 127 c 1
 103 106.287109375 138.999997408 65.2693658771 220 64 c 0
 367 102 l 1
 402.950195312 54.6630859375 l 1
58 502 m 1
 109 517 l 1
 118 471 l 1
 106 411 l 1
 76 406 l 1
 59 407 36 471 58 502 c 1
341 174 m 2
 341 384 l 0
 341 384 351 470 230 472 c 1
 169 459 90 439 88 439 c 1
 58 502 l 0
 82 521 159 546 235 546 c 0
 350 546 426 480 427 360 c 0
 427 150 l 1
 427 94 442 76 442 76 c 1
 494 55 l 1
 470 -26 l 1
 470 -26 392.250332175 5.69789437068 390 10 c 2
 356 75 l 1
 346.049804688 96.3369140625 341 174 341 174 c 2
EndSplineSet
Layer: 2
Layer: 3
EndChar

StartChar: uni006E
Encoding: 110 110 7
Width: 681
VWidth: 39
Flags: HW
HStem: 0 54<69.9688 134.016> 0 45<265.969 297.642 607.969 636.438> 475 67<371.969 464.04>
VStem: 139.969 87<20.94 88 109.294 335> 489 84.9688<85.0566 449.454>
LayerCount: 4
Back
Fore
SplineSet
140.96875 56 m 1x78
 226.96875 97 l 0
 227.96875 62 244.96875 43 265.96875 41 c 1
 302.96875 45 l 1
 308.96875 28 300.96875 0 286.96875 0 c 1
 257.96875 0 224.96875 0 195.96875 0 c 0
 170.96875 0 140.96875 19 140.96875 56 c 1x78
220.96875 56 m 1
 220.96875 19 180.96875 0 155.96875 0 c 0x78
 126.96875 0 108.96875 0 79.96875 0 c 1
 72.0263671875 14.630859375 63.9052734375 29.029296875 63.96875 54 c 1xb8
 100.96875 53 l 1
 122.96875 53 135.96875 54 136.96875 88 c 0
 220.96875 56 l 1
227.96875 0 m 1
 132.96875 0 l 1xb8
 139.611328125 104.616210938 139.96875 230.642578125 139.96875 361 c 1
 139.96875 407 44 454 44 454 c 1
 108 537 l 1
 172.96875 472 l 0
 228.96875 335 l 1
 227.96875 291 226.96875 316 226.96875 273 c 0
 226.96875 192 226.96875 63 227.96875 0 c 1
498.96875 56 m 5
 573.96875 97 l 4
 574.96875 62 586.96875 53 607.96875 51 c 5
 633.96875 45 l 5
 639.96875 28 651.96875 0 637.96875 0 c 5
 608.96875 0 581.96875 0 552.96875 0 c 4x78
 527.96875 0 498.96875 19 498.96875 56 c 5
567.96875 0 m 5
 539.96875 1 519 -1 489 0 c 5
 489 74 l 5
 489 116 491.96875 364 487.96875 404 c 4
 482.96875 463 440.96875 473 371.96875 475 c 5
 164.96875 403 l 5
 172.96875 472 l 4
 172.96875 472 280.96875 542 377.96875 542 c 4
 493.97265625 542 560.96875 504 570.96875 425 c 4
 576.96875 381 575.96875 329 575.96875 281 c 4
 575.96875 200 575.96875 63 567.96875 0 c 5
EndSplineSet
Layer: 2
Layer: 3
EndChar

StartChar: uni0064
Encoding: 100 100 8
Width: 572
VWidth: 75
Flags: HW
HStem: -12 68<210.52 266> 707 44<352.764 391 394 431.722>
VStem: 39 75<163.333 356.115> 394 89<116.196 403 475 707.375>
LayerCount: 4
Back
Fore
SplineSet
491 725 m 5
 394 654 l 4
 393 689 409 708 391 710 c 5
 345 707 l 5
 335 724 348 751 371 751 c 5
 478 751 l 4
 491 725 l 5
402 403 m 5
 402 403 350 440 287 441 c 5
 179 441 114 385 114 239 c 5
 120.609375 141.120117188 202.280273438 56 266 56 c 4
 404 102 l 5
 440 115 l 5
 444 48 l 5
 444 48 353 -12 256 -12 c 4
 109 -12 39 107 39 248 c 4
 39 454 163 526 290 516 c 5
 413 475 l 5
 402 403 l 5
417 51 m 5
 483 110 l 4
 548 67 l 5
 528 -5 l 5
 445.999999636 20.6184122267 l 5
 417 51 l 5
412 61 m 6
 394 147 l 5
 394 710 l 5
 491 725 l 5
 483 584 l 5
 483 165 l 5
 486.014648438 105.3046875 513 89 513 89 c 5
 412 61 l 6
EndSplineSet
Layer: 2
Layer: 3
EndChar

StartChar: uni0073
Encoding: 115 115 9
Width: 458
VWidth: 39
Flags: HW
HStem: -5 64<144.016 291.533> 497 48<150.667 293.953>
VStem: 47 65<384.485 458.349> 343 67<104.549 193.963>
LayerCount: 4
Back
Fore
SplineSet
27 70 m 1025,0,-1
397 500 m 1,1,-1
 406 407 l 1,2,-1
 399 397 385 394 370 394 c 0,5,-1
 336 415 l 4,6,-1
 332 469 l 1,7,-1
 397 500 l 1,1,-1
410 159 m 0,8,-1
 410 73 349 -10 224 -10 c 0,11,-1
 108 -10 27 70 28 70 c 1,14,-1
 68 128 l 2,15,-1
 68 129 149 75 210 62 c 1,18,-1
 311 64 343 155 343 155 c 0,21,-1
 343 252 47 242 47 412 c 0,24,-1
 47 487 118 545 213 545 c 0,27,-1
 319 545 398 500 397 500 c 1,30,-1
 332 469 l 2,31,-1
 332 468 274 479 208 477 c 1,34,-1
 155 475 128 446 128 416 c 1,37,-1
 178 290 410 324 410 159 c 0,8,-1
EndSplineSet
Layer: 2
Layer: 3
EndChar

StartChar: uni0068
Encoding: 104 104 10
Width: 656
VWidth: 39
Flags: HW
HStem: 0 45<56.8926 121.906 245.016 269.689 413.343 475.131 602.016 626.689> 488 57<299.131 444.125> 707 44<58.0734 124.198>
VStem: 128.016 71<4.23865 619.061> 485.016 70<11.6103 56 283.246 449.831> 488.016 76<38.3824 447.888>
LayerCount: 4
Back
Fore
SplineSet
572.96875 56 m 5
 572.96875 19 532.96875 0 507.96875 0 c 4x78
 478.96875 0 460.96875 0 431.96875 0 c 5
 424.026367188 14.630859375 415.905273438 29.029296875 415.96875 54 c 5xb8
 452.96875 53 l 5
 474.96875 53 487.96875 54 488.96875 88 c 4
 572.96875 56 l 5
498.96875 56 m 1
 573.96875 97 l 0
 574.96875 62 586.96875 53 607.96875 51 c 1
 633.96875 45 l 1
 639.96875 28 651.96875 0 637.96875 0 c 1
 608.96875 0 581.96875 0 552.96875 0 c 0x78
 527.96875 0 498.96875 19 498.96875 56 c 1
567.96875 0 m 1
 539.96875 1 519 -1 489 0 c 1
 489 74 l 1
 489 116 491.96875 364 487.96875 404 c 0
 482.96875 463 440.96875 473 371.96875 475 c 1
 164.96875 403 l 1
 172.96875 472 l 0
 172.96875 472 280.96875 542 377.96875 542 c 0
 493.97265625 542 560.96875 504 570.96875 425 c 0
 576.96875 381 575.96875 329 575.96875 281 c 0
 575.96875 200 575.96875 63 567.96875 0 c 1
128.96875 56 m 1x78
 214.96875 97 l 0
 215.96875 62 232.96875 43 253.96875 41 c 1
 290.96875 45 l 1
 296.96875 28 288.96875 0 274.96875 0 c 1
 245.96875 0 212.96875 0 183.96875 0 c 0
 158.96875 0 128.96875 19 128.96875 56 c 1x78
208.96875 56 m 1
 208.96875 19 168.96875 0 143.96875 0 c 0x78
 114.96875 0 96.96875 0 67.96875 0 c 1
 60.0263671875 14.630859375 51.9052734375 29.029296875 51.96875 54 c 1xb8
 88.96875 53 l 1
 110.96875 53 123.96875 54 124.96875 88 c 0
 208.96875 56 l 1
215.96875 0 m 1
 120.96875 0 l 1xb8
 127.611328125 104.616210938 127.96875 230.642578125 127.96875 361 c 1
 127.96875 407 128.015625 652 128.015625 652 c 1
 200 715 l 1
 200 487 l 0
 189.798785971 443 l 1
 216.96875 335 l 1
 215.96875 291 214.96875 316 214.96875 273 c 0
 214.96875 192 214.96875 63 215.96875 0 c 1
199.015625 709 m 1xf0
 128.015625 652 l 0
 127.015625 686 113.015625 698 91.015625 698 c 1
 55.015625 697 l 1
 39.015625 734 67.015625 751 81.015625 751 c 1
 110.015625 751 147.015625 751 176.015625 751 c 0
 199.015625 709 l 1xf0
EndSplineSet
Layer: 2
Layer: 3
EndChar

StartChar: uni006F
Encoding: 111 111 11
Width: 571
VWidth: 75
Flags: HW
HStem: -2 55<214.297 366.469> 479 55<214.855 356.52>
VStem: 40 78<157.383 365.819> 460 71<155.996 371.65>
LayerCount: 4
Back
Fore
SplineSet
531 263 m 0
 531 121.747070312 444.4765625 -2 295 -2 c 0
 127.997070312 -2 40 128 40 260 c 0
 40 406 140.999023438 534.833984375 285 534 c 0
 405.49609375 533.301757812 531 447 531 263 c 0
450 270 m 0
 450 426 347 469 274 469 c 1
 166 458 128 351 128 263 c 0
 128 163 175 64 306 63 c 5
 392.518554688 76 450 139.692382812 450 270 c 0
EndSplineSet
Layer: 2
Layer: 3
EndChar

StartChar: uni0065
Encoding: 101 101 12
Width: 551
VWidth: 39
Flags: HW
HStem: -9 53<247.897 461.349> 254 54<103 426.869> 490 55<205.301 365.053>
LayerCount: 4
Back
Fore
SplineSet
103 308 m 1
 426 308 l 1
 434 419 338 485 277 485 c 1
 250 485 130.834639197 441.01254712 129.84290717 343 c 0
 129.639418946 322.889326415 105 299.872070312 105 273 c 0
 105 256.451171875 130.575195312 215.38671875 133 200 c 1
 147.276367188 109.391601562 190.306640625 67.2744140625 304 63 c 1
 365 71 477 95 479 95 c 1
 494 37 l 0
 452 22 390 -9 314 -9 c 0
 130 -8 40 112 40 264 c 0
 40 444 137 545 280 545 c 0
 442 545 516 410 508 321 c 0
 500 242 l 0
 82 242 l 1
 103 308 l 1
EndSplineSet
Layer: 2
Layer: 3
EndChar

StartChar: uni0069
Encoding: 105 105 13
Width: 327
VWidth: 39
Flags: W
HStem: 0 44<56.8926 121.561 244.158 269.689> 501 40<60.7009 84.0156> 629 122<111.766 196.154>
VStem: 94.0156 122<647.139 730.84> 128.016 71<3.00103 462.893>
LayerCount: 4
Back
Fore
SplineSet
94.015625 690 m 4xf0
 94.015625 724 121.015625 751 155.015625 751 c 0
 189.015625 751 216.015625 708 216.015625 690 c 0
 216.015625 656 189.015625 629 155.015625 629 c 4
 121.015625 629 94.015625 666 94.015625 690 c 4xf0
128.015625 56 m 1xe8
 205.015625 97 l 0
 206.015625 62 218.015625 53 239.015625 51 c 1
 275.015625 45 l 1
 281.015625 28 273.015625 0 259.015625 0 c 1
 230.015625 0 213.015625 0 184.015625 0 c 0
 159.015625 0 128.015625 19 128.015625 56 c 1xe8
199.015625 56 m 1
 199.015625 19 168.015625 0 143.015625 0 c 0
 114.015625 0 97.015625 0 68.015625 0 c 1
 54.015625 0 46.015625 27 52.015625 44 c 1
 88.015625 43 l 1
 110.015625 43 124.015625 54 125.015625 88 c 0
 199.015625 56 l 1
206.015625 0 m 1
 121.015625 0 l 1
 125.015625 63 127.015625 178 127.015625 278 c 1
 128.015625 324 128.015625 366 128.015625 410 c 1
 127.015625 408 136.015625 470 115.015625 487 c 1
 53.015625 501 l 2
 53.015625 501 41.015625 527 71.015625 541 c 1
 180.015625 541 l 1
 202.015625 509 206.015625 514 207.015625 465 c 1
 206.015625 421 205.015625 316 205.015625 273 c 0
 205.015625 192 205.015625 63 206.015625 0 c 1
EndSplineSet
Layer: 2
Layer: 3
EndChar

StartChar: uni0048
Encoding: 72 72 14
Width: 742
VWidth: 39
Flags: HW
HStem: 0 88<125.016 141.203 550.016 566.203> 0 37<52.0156 116.114 209.965 268.251> 366 76<155 593> 707 44<58.0734 123.391 276.016 294.467 460.073 542.251 686.73 691.689>
VStem: 128.016 71<11.6103 56> 155 53.0156<366 442> 549.016 82<0 367 442 707> 549.016 75<15.0175 56> 549.016 43.9844<367 442>
LayerCount: 4
Back
Fore
SplineSet
550.015625 695 m 1x30
 550.015625 732 581.015625 751 606.015625 751 c 0
 635.015625 751 652.015625 751 681.015625 751 c 1
 695.015625 751 703.015625 723 697.015625 706 c 1
 661.015625 700 l 1
 640.015625 698 628.015625 689 627.015625 654 c 0
 550.015625 695 l 1x30
631.015625 719 m 1x32
 549.015625 662 l 0
 548.015625 696 515.015625 712 493.015625 712 c 1
 457.015625 707 l 1
 441.015625 744 469.015625 751 483.015625 751 c 1
 512.015625 751 649.015625 751 678.015625 751 c 0
 631.015625 719 l 1x32
130.015625 695 m 1
 130.015625 732 161.015625 751 186.015625 751 c 0
 215.015625 751 252.015625 751 281.015625 751 c 1
 304.015625 751 307 708 287.015625 708 c 1
 261.015625 711 l 1
 240.015625 713 208.015625 709 207.015625 654 c 0
 130.015625 695 l 1
553.015625 56 m 1
 630.015625 97 l 0
 631.015625 62 643.015625 53 664.015625 51 c 1
 695.015625 45 l 1
 701.015625 28 693.015625 0 679.015625 0 c 1
 650.015625 0 638.015625 0 609.015625 0 c 0x70
 584.015625 0 553.015625 19 553.015625 56 c 1
624.015625 56 m 1xb1
 624.015625 19 593.015625 0 568.015625 0 c 0
 539.015625 0 512.015625 0 483.015625 0 c 1x71
 469.015625 0 466 50 477.015625 50 c 1
 513.015625 49 l 1
 537 49 549.015625 54 550.015625 88 c 0
 624.015625 56 l 1xb1
155 441 m 5x3480
 593 442 l 1
 593 367 l 1
 155 366 l 1
 155 441 l 5x3480
549.015625 0 m 1x72
 549.015625 709 l 1x7080
 631.015625 707 l 1
 625.015625 688 628.015625 438 628.015625 388 c 1
 628.015625 249 630.015625 88 634.015625 0 c 1
 549.015625 0 l 1x72
209.015625 719 m 1
 127.015625 662 l 0
 126.015625 696 113.015625 708 91.015625 708 c 1
 55.015625 707 l 1
 39.015625 744 67.015625 751 81.015625 751 c 1
 110.015625 751 247.015625 751 276.015625 751 c 0
 209.015625 719 l 1
128.015625 56 m 1x78
 206.015625 107 l 0
 207.015625 72 218.015625 57 239.015625 52 c 1
 265 48 l 1
 279 48 273.015625 0 259.015625 0 c 1
 230.015625 0 213.015625 0 184.015625 0 c 0
 159.015625 0 128.015625 19 128.015625 56 c 1x78
199.015625 66 m 1
 199.015625 29 168.015625 0 143.015625 0 c 0
 114.015625 0 97.015625 0 68.015625 0 c 1x78
 54.015625 0 46.015625 27 52.015625 44 c 1
 88.015625 43 l 1
 110.015625 43 124.015625 54 125.015625 88 c 0xb8
 199.015625 66 l 1
206.015625 0 m 1
 121.015625 0 l 1
 125.015625 88 127.015625 249 127.015625 388 c 1
 127.015625 438 130.015625 688 124.015625 707 c 1
 208.015625 725 l 1x74
 206.015625 0 l 1
EndSplineSet
Layer: 2
Layer: 3
EndChar

StartChar: si_CI
Encoding: 261 -1 15
Width: 703
VWidth: 3
Flags: MW
LayerCount: 4
Back
Fore
SplineSet
90 309 m 1
 420 315 l 1
 420 275 l 1
 80 265 l 1
 90 309 l 1
383 279 m 1
 390 346 l 1
 372 374 322 412 261 402 c 0
 245 367 l 1
 192 373 l 5
 192 373 182.939659765 389.534220164 184 406 c 4
 186.451938483 444.075589242 239 463 284 462 c 0
 361 460 432 402 430 338 c 0
 420 275 l 1
 383 279 l 1
236 542 m 1
 166 536 113.043945312 559.037109375 112 631 c 0
 110.501953125 734.301757812 232.370117188 779.297851562 362 779 c 0
 459.240234375 778.776367188 619.0234375 753.130859375 618 621 c 0
 617.740234375 587.463867188 572.982421875 512.866210938 550 516 c 0
 541.78515625 517.120117188 526.1953125 529.629882812 533 541 c 1
 554 617 l 0
 554 668 485.015625 707.807617188 356 708 c 0
 290.965740578 708.096976422 172 689 172 635 c 0
 172 603.466796875 196.920136266 597.28312811 246 597 c 0
 289.742324047 596.747662675 388 614 388 614 c 1
 484.886887706 624.035111774 666.839515596 530.222723105 674 321 c 0
 681.114472298 113.121708002 580 -20 384 -20 c 0
 245 -20 128 33 128 149 c 0
 128 193 148 227 169 242 c 1
 256 290 l 1
 298 272 l 1
 296 272 181 242 181 181 c 1
 183 101 271 70 388 70 c 0
 541 69 612 204 612 326 c 1
 612 496 463 553 392 560 c 1
 236 542 l 1
EndSplineSet
Layer: 2
Layer: 3
EndChar

StartChar: uni0780
Encoding: 262 1920 16
Width: 546
VWidth: 0
Flags: MW
AnchorPoint: "thn_ubufibi" 257 400 basechar 0
LayerCount: 4
Back
Fore
SplineSet
96 133 m 1
 23 147 l 0
 16.224609375 129.553710938 12.6123046875 106.75 26 84 c 1
 60 70 l 0
 60 70 84.61328125 66 104 66 c 0
 219 66 473 274 528 344 c 1
 528 344 529 364 512 373 c 1
 486.231445312 369.091796875 l 1
 444 324 230 141 96 133 c 1
EndSplineSet
Layer: 2
Layer: 3
EndChar

StartChar: uni07AA
Encoding: 263 1962 17
Width: 0
VWidth: 0
Flags: MW
AnchorPoint: "thn_ubufibi" -1 455 mark 0
LayerCount: 4
Back
Fore
SplineSet
-103.868164062 639.817382812 m 1
 -103.868164062 639.817382812 -49.283203125 679.53515625 3.8291015625 679.53515625 c 0
 62.7861328125 679.53515625 96.6953125 653.260742188 97.3544921875 601.907226562 c 0
 98.5009765625 512.596679688 -31.900390625 440.299804688 -110.60546875 440.299804688 c 1
 -105 475 l 17
 30.876953125 502.8671875 42.9248046875 592.20703125 42.6669921875 592.798828125 c 1
 42.6669921875 608.284179688 44.787109375 635.017578125 -14 636.477539062 c 0
 -20.0556640625 636.627929688 -46.1455078125 627.2421875 -46.1455078125 627.2421875 c 0
 -93.8984375 609.177734375 l 1
 -103.868164062 639.817382812 l 1
EndSplineSet
Layer: 2
Layer: 3
EndChar

StartChar: uni07AB
Encoding: 264 1963 18
Width: -2
VWidth: 0
Flags: MW
AnchorPoint: "thn_ubufibi" 0 445 mark 0
LayerCount: 4
Back
Fore
SplineSet
29.1318359375 653.817382812 m 1
 29.1318359375 653.817382812 76.716796875 689.53515625 119.829101562 689.53515625 c 0
 188.786132812 689.53515625 216.612304688 647.259765625 217.354492188 607.907226562 c 0
 218.8515625 528.602539062 108.099609375 455.299804688 -0.60546875 455.299804688 c 1
 5 491 l 21
 140.876953125 508.8671875 163.924804688 608.20703125 161.666992188 608.798828125 c 1
 161.666992188 643.697265625 133.669921875 649.196289062 107.854492188 649.2421875 c 0
 45.1015625 625.177734375 l 1
 29.1318359375 653.817382812 l 1
EndSplineSet
Refer: 17 1962 N 1 0 0 1 -90 0 2
Layer: 2
Layer: 3
EndChar

StartChar: uni0782
Encoding: 265 1922 19
Width: 745
VWidth: 0
Flags: MW
AnchorPoint: "thn_ubufibi" 405 479 basechar 0
LayerCount: 4
Back
Fore
SplineSet
355 320 m 1
 376 301 l 1
 402.523997761 286.812745384 419.612917702 270.405905287 462 270.639648438 c 0
 514.166511848 270.927320156 537.04296875 306.859375 543 328 c 1
 550 304.276367188 l 1
 560.657226562 289.721679688 585.385742188 273 611 273 c 0
 646.047851562 273 669 289 688 327 c 0
 702 355 712 397 712 397 c 0
 671 407 l 0
 651 350 l 0
 616 296 562 352 562 391 c 0
 517 395.200195312 l 1
 517 395.200195312 514.745117188 320.985351562 468 321.340820312 c 0
 464.106445312 321.370117188 452.084960938 322.098632812 448 323.723632812 c 0
 431 333 l 1
 421.071289062 341.483398438 423.36328125 356.380859375 432 374 c 1
 417.875 383.337890625 405 398 405 398 c 1
 359 400 333.818359375 357.915039062 329 352 c 1
 355 320 l 1
106 153 m 1
 33 167 l 0
 26.224609375 149.553710938 22.6123046875 126.75 36 104 c 1
 70 90 l 0
 70 90 94.61328125 86 114 86 c 0
 229 86 353 224 408 294 c 1
 408 294 443.8515625 344.590820312 442 365 c 1
 440.413085938 382.489257812 412.844726562 393.846679688 405 398 c 1
 355 317 l 1
 322.768554688 271.908203125 237 161 106 153 c 1
EndSplineSet
Layer: 2
Layer: 3
EndChar

StartChar: si_Ii
Encoding: 266 3466 20
Width: 576
VWidth: 15
Flags: HMW
LayerCount: 4
Back
Fore
SplineSet
456.462890625 630.329101562 m 4
 474.243164062 659.961914062 538.447265625 655.0234375 543.387695312 652.060546875 c 4
 573.01953125 634.280273438 582.896484375 594.770507812 565.118164062 565.137695312 c 4
 547.336914062 535.504882812 481.8984375 541.18359375 478.194335938 543.405273438 c 4
 448.5625 561.186523438 438.68359375 600.696289062 456.462890625 630.329101562 c 4
138.973632812 702.625 m 0
 146.225585938 734.939453125 206.694335938 747.930664062 210.909179688 746.986328125 c 0
 243.223632812 739.734375 264.243164062 708.454101562 256.991210938 676.139648438 c 0
 249.739257812 643.826171875 189.270507812 630.833007812 185.056640625 631.779296875 c 0
 152.7421875 639.03125 131.721679688 670.310546875 138.973632812 702.625 c 0
EndSplineSet
Refer: 4 3515 N 1 0 0 1 0 0 2
Layer: 2
Layer: 3
EndChar
